<!DOCTYPE svg PUBLIC "-//W3C//DTD SVG 1.1//EN" "http://www.w3.org/Graphics/SVG/1.1/DTD/svg11.dtd">
<!-- Uploaded to: SVG Repo, www.svgrepo.com, Transformed by: SVG Repo Mixer Tools -->
<svg width="800px" height="800px" viewBox="0 0 24 24" fill="none" xmlns="http://www.w3.org/2000/svg" stroke="#ffffff">
<g id="SVGRepo_bgCarrier" stroke-width="0"/>
<g id="SVGRepo_tracerCarrier" stroke-linecap="round" stroke-linejoin="round"/>
<g id="SVGRepo_iconCarrier"> <path d="M9.73319 10.4608C9.82276 10.1025 10.1025 9.82273 10.4608 9.73315L13.9187 8.86869C14.651 8.68559 15.3144 9.34899 15.1313 10.0814L14.2669 13.5392C14.1773 13.8975 13.8975 14.1773 13.5393 14.2668L10.0814 15.1313C9.34902 15.3144 8.68562 14.651 8.86872 13.9186L9.73319 10.4608Z" stroke="#ffffff" stroke-width="1.5" stroke-linecap="round" stroke-linejoin="round"/> <path d="M12 3.5C5.5 3.5 3.5 5.5 3.5 12C3.5 18.5 5.5 20.5 12 20.5C18.5 20.5 20.5 18.5 20.5 12C20.5 5.5 18.5 3.5 12 3.5Z" stroke="#ffffff" stroke-width="1.5" stroke-linecap="round" stroke-linejoin="round"/> </g>
</svg>