<svg xmlns="http://www.w3.org/2000/svg" version="1.1" xmlns:xlink="http://www.w3.org/1999/xlink" xmlns:svgjs="http://svgjs.dev/svgjs" width="2000" height="949" viewBox="0 0 2000 949"><g transform="matrix(1,0,0,1,-1.2121212121212466,0.09664749112323534)"><svg viewBox="0 0 396 188" data-background-color="#ffffff" preserveAspectRatio="xMidYMid meet" height="949" width="2000" xmlns="http://www.w3.org/2000/svg" xmlns:xlink="http://www.w3.org/1999/xlink"><g id="tight-bounds" transform="matrix(1,0,0,1,0.2400000000000091,-0.019146183699859876)"><svg viewBox="0 0 395.52 188.03829236739972" height="188.03829236739972" width="395.52"><g><svg viewBox="0 0 395.52 188.03829236739972" height="188.03829236739972" width="395.52"><g><svg viewBox="0 0 395.52 188.03829236739972" height="188.03829236739972" width="395.52"><g id="textblocktransform"><svg viewBox="0 0 395.52 188.03829236739972" height="188.03829236739972" width="395.52" id="textblock"><g><svg viewBox="0 0 395.52 188.03829236739972" height="188.03829236739972" width="395.52"><g transform="matrix(1,0,0,1,0,0)"><svg width="395.52" viewBox="1.55 -35.85 77.29 36.75" height="188.03829236739972" data-palette-color="#0000ff"><path d="M12-32.4L12-32.4Q11.1-32.4 10.45-32.1 9.8-31.8 9.8-31.35L9.8-31.35Q9.2-29.25 9.2-18.82 9.2-8.4 9.15-7.15L9.15-7.15Q10.1-5.65 12.1-5.65L12.1-5.65Q15.65-5.65 17.45-9.58 19.25-13.5 19.25-19.43 19.25-25.35 17.5-28.88 15.75-32.4 12-32.4ZM2.45 0.55L2.45 0.55Q1.7 0.45 1.7 0.1L1.7 0.1 1.85-0.5Q3.1-3.2 3.1-19.95L3.1-19.95Q3.1-27.95 2.68-29.95 2.25-31.95 2-32.5L2-32.5 1.75-33Q1.55-33.2 1.55-33.58 1.55-33.95 2.15-34.2L2.15-34.2Q6.05-35.75 12.4-35.75L12.4-35.75Q25.75-35.75 25.75-18.75L25.75-18.75Q25.75-12.1 23.4-6.6L23.4-6.6Q22.45-4.5 21.2-2.98 19.95-1.45 17.93-0.43 15.9 0.6 13.45 0.6L13.45 0.6Q12.95 0.55 12.18 0.45 11.4 0.35 9.88-0.3 8.35-0.95 7.8-2L7.8-2Q5.95 0.55 2.45 0.55ZM45.2-9.95L45.1-14.7Q45.1-15.85 43.7-15.95L43.7-15.95 40.15-15.95Q39.75-15.95 39.75-16.2L39.75-16.2Q40.05-17.65 40.8-18.53 41.55-19.4 42.05-19.5L42.05-19.5Q43.45-19.7 46.65-19.7 49.85-19.7 50.65-19.68 51.45-19.65 51.65-19.5L51.65-19.5Q51.85-19.25 51.85-18.93 51.85-18.6 51.67-14.78 51.5-10.95 51.5-7.93 51.5-4.9 51.7-4.13 51.9-3.35 51.9-3.15L51.9-3.15Q51.9-2.35 50.5-1.43 49.1-0.5 46.27 0.2 43.45 0.9 40.05 0.9L40.05 0.9Q35.5 0.9 32.15-2.25L32.15-2.25Q29.55-4.75 28.57-7.7 27.6-10.65 27.6-16L27.6-16Q27.6-35.85 42.15-35.85L42.15-35.85Q44.6-35.85 46.55-35.33 48.5-34.8 49.97-33.27 51.45-31.75 51.45-29.35L51.45-29.35Q51.45-28.1 50.95-26.8L50.95-26.8Q50.05-24.15 46.95-24.15L46.95-24.15Q45.25-24.15 44.37-25.03 43.5-25.9 43.5-27.45L43.5-27.45Q43.5-28.05 44.15-28.2L44.15-28.2Q45.1-28.75 45.1-30.08 45.1-31.4 44.1-32.13 43.1-32.85 42-32.85L42-32.85Q39.6-32.85 37.95-31.13 36.3-29.4 35.55-26.6L35.55-26.6Q34.3-21.6 34.3-16.4L34.3-16.4Q34.3-7.9 38.45-5.1L38.45-5.1Q40-4 41.7-4L41.7-4Q44.85-4 45.05-5.15L45.05-5.15Q45.2-6.7 45.2-9.95L45.2-9.95ZM65.09-32.4L65.09-32.4Q64.19-32.4 63.55-32.1 62.89-31.8 62.89-31.35L62.89-31.35Q62.3-29.25 62.3-18.82 62.3-8.4 62.24-7.15L62.24-7.15Q63.2-5.65 65.19-5.65L65.19-5.65Q68.75-5.65 70.55-9.58 72.34-13.5 72.34-19.43 72.34-25.35 70.59-28.88 68.84-32.4 65.09-32.4ZM55.55 0.55L55.55 0.55Q54.8 0.45 54.8 0.1L54.8 0.1 54.95-0.5Q56.2-3.2 56.2-19.95L56.2-19.95Q56.2-27.95 55.77-29.95 55.34-31.95 55.09-32.5L55.09-32.5 54.84-33Q54.64-33.2 54.64-33.58 54.64-33.95 55.24-34.2L55.24-34.2Q59.14-35.75 65.5-35.75L65.5-35.75Q78.84-35.75 78.84-18.75L78.84-18.75Q78.84-12.1 76.5-6.6L76.5-6.6Q75.55-4.5 74.3-2.98 73.05-1.45 71.02-0.43 69 0.6 66.55 0.6L66.55 0.6Q66.05 0.55 65.27 0.45 64.5 0.35 62.97-0.3 61.45-0.95 60.89-2L60.89-2Q59.05 0.55 55.55 0.55Z" opacity="1" transform="matrix(1,0,0,1,0,0)" fill="#0000ff" class="wordmark-text-0" data-fill-palette-color="primary" id="text-0"></path></svg></g></svg></g></svg></g></svg></g></svg></g><defs></defs></svg><rect width="395.52" height="188.03829236739972" fill="none" stroke="none" visibility="hidden"></rect></g></svg></g></svg>