<svg width="40" height="30" viewBox="0 0 40 30" fill="none" xmlns="http://www.w3.org/2000/svg">
<g clip-path="url(#clip0_429_611)">
<path d="M17 30V6H30.7393C32.8394 6 34.5726 6.39752 35.9389 7.19255C37.3053 7.96273 38.3174 9.03106 38.9752 10.3975C39.6584 11.7391 40 13.2671 40 14.9814C40 16.5963 39.5699 18.0124 38.7096 19.2298C37.8746 20.4472 36.8625 21.4534 35.6733 22.2484C35.9516 22.4224 36.1667 22.6211 36.3185 22.8447C36.4703 23.0435 36.5968 23.2547 36.698 23.4783L39.5825 30H30.0182L27.6271 24.6708C27.5005 24.3727 27.3614 24.1739 27.2096 24.0745C27.0578 23.9503 26.8427 23.8882 26.5644 23.8882H26.1848V30H17ZM26.1848 16.8447H28.4241C29.9169 16.8447 30.6634 16.2236 30.6634 14.9814C30.6634 14.2857 30.4862 13.7888 30.132 13.4907C29.8031 13.1925 29.2844 13.0435 28.5759 13.0435H26.1848V16.8447Z" fill="white"/>
<path d="M9.29585 24L0 0H9.44578L11.7135 6.67078L13.9813 13.3416L18.5542 0H28L18.7042 24H9.29585Z" fill="url(#paint0_linear_429_611)"/>
</g>
<defs>
<linearGradient id="paint0_linear_429_611" x1="14.0146" y1="-17.4077" x2="14.0146" y2="27.1379" gradientUnits="userSpaceOnUse">
<stop stop-color="#F0352B"/>
<stop offset="1" stop-color="#B1198D"/>
</linearGradient>
<clipPath id="clip0_429_611">
<rect width="40" height="30" fill="white"/>
</clipPath>
</defs>
</svg>
