<svg width="69" height="11" viewBox="0 0 69 11" fill="none" xmlns="http://www.w3.org/2000/svg">
<path d="M3.682 10L0.21 0.983999H3.738L5.432 5.996L7.14 0.983999H10.668L7.196 10H3.682Z" fill="url(#paint0_linear_199_520)"/>
<path d="M11.3728 10V0.983999H16.4408C17.2155 0.983999 17.8548 1.13333 18.3588 1.432C18.8628 1.72133 19.2361 2.12267 19.4788 2.636C19.7308 3.14 19.8568 3.714 19.8568 4.358C19.8568 4.96467 19.6981 5.49667 19.3808 5.954C19.0728 6.41133 18.6995 6.78933 18.2608 7.088C18.3635 7.15333 18.4428 7.228 18.4988 7.312C18.5548 7.38667 18.6015 7.466 18.6388 7.55L19.7028 10H16.1748L15.2928 7.998C15.2461 7.886 15.1948 7.81133 15.1388 7.774C15.0828 7.72733 15.0035 7.704 14.9008 7.704H14.7608V10H11.3728ZM14.7608 5.058H15.5868C16.1375 5.058 16.4128 4.82467 16.4128 4.358C16.4128 4.09667 16.3475 3.91 16.2168 3.798C16.0955 3.686 15.9041 3.63 15.6428 3.63H14.7608V5.058ZM19.6514 10L23.1234 0.983999H26.6374L30.1094 10H26.5814L25.9374 8.32H23.8234L23.1794 10H19.6514ZM24.1874 6.01H25.5594L24.8734 4.288L24.1874 6.01ZM31.4308 10V3.42H29.1348V0.983999H37.1148V3.42H34.8188V10H31.4308ZM40.7311 10.14C40.0965 10.14 39.4851 10.0887 38.8971 9.986C38.3091 9.874 37.8145 9.71533 37.4131 9.51V6.976C37.8518 7.19067 38.3465 7.368 38.8971 7.508C39.4478 7.648 39.9378 7.718 40.3671 7.718C40.6471 7.718 40.8665 7.68533 41.0251 7.62C41.1838 7.54533 41.2631 7.44267 41.2631 7.312C41.2631 7.144 41.1138 7.01333 40.8151 6.92C40.5165 6.82667 40.1245 6.69133 39.6391 6.514C39.0605 6.29 38.6031 6.05667 38.2671 5.814C37.9311 5.57133 37.6885 5.282 37.5391 4.946C37.3991 4.60067 37.3291 4.17133 37.3291 3.658C37.3291 1.782 38.6498 0.843999 41.2911 0.843999C41.5898 0.843999 41.9211 0.867333 42.2851 0.913999C42.6585 0.951333 43.0178 1.00267 43.3631 1.068C43.7178 1.13333 44.0165 1.20333 44.2591 1.278V3.826C43.7458 3.61133 43.2931 3.46667 42.9011 3.392C42.5091 3.31733 42.1638 3.28 41.8651 3.28C41.6318 3.28 41.3938 3.30333 41.1511 3.35C40.9085 3.38733 40.7871 3.48067 40.7871 3.63C40.7871 3.75133 40.8945 3.84933 41.1091 3.924C41.3238 3.98933 41.6645 4.08733 42.1311 4.218C42.8778 4.42333 43.4378 4.67067 43.8111 4.96C44.1845 5.24 44.4318 5.576 44.5531 5.968C44.6838 6.35067 44.7491 6.794 44.7491 7.298C44.7491 8.15667 44.4131 8.84733 43.7411 9.37C43.0691 9.88333 42.0658 10.14 40.7311 10.14ZM45.4431 10V0.983999H48.8311V3.504L50.8051 0.983999H54.6271L51.5471 4.722L54.9071 10H51.3231L49.4751 6.864L48.8311 7.648V10H45.4431ZM57.8161 10V6.724L54.5541 0.983999H58.0821L59.5101 3.854L60.9381 0.983999H64.4661L61.2041 6.724V10H57.8161ZM64.8162 10V0.983999H68.2042V10H64.8162Z" fill="white"/>
<defs>
<linearGradient id="paint0_linear_199_520" x1="34.5" y1="-5" x2="34.5" y2="16" gradientUnits="userSpaceOnUse">
<stop stop-color="#F0362B"/>
<stop offset="1" stop-color="#B1188B"/>
</linearGradient>
</defs>
</svg>
