<svg width="212" height="95" viewBox="0 0 212 95" fill="none" xmlns="http://www.w3.org/2000/svg">
<path fill-rule="evenodd" clip-rule="evenodd" d="M212 20C212 8.95431 203.046 0 192 0H20C8.95431 0 0 8.9543 0 20V75C0 86.0457 8.95431 95 20 95H99.0565C110.806 95 120.025 84.9192 118.977 73.2162L115.143 30.4032C114.305 21.0407 122.11 13.1847 131.478 13.9629L134.51 14.2147C140.384 14.7027 144.976 19.4859 145.224 25.3746C145.701 36.6802 160.358 40.7833 166.635 31.3686L171.172 24.5643C174.02 20.2941 178.962 17.9074 184.076 18.3323C194.986 19.2385 200.75 31.686 194.384 40.592L177.192 64.646C168.113 77.3489 177.193 95 192.807 95C203.407 95 212 86.4069 212 75.8067V20ZM28.2835 86.4366C33.6486 88.8517 39.9879 90.363 47.3014 90.9706C57.0811 91.783 65.6131 91.1217 72.8975 88.9868C80.274 86.7738 86.5162 82.7542 91.6241 76.9277C96.732 71.1012 100.819 63.1349 103.885 53.0286C105.322 48.096 106.203 43.6738 106.528 39.7619C107.107 32.7886 106.085 27.0523 103.462 22.5531C100.839 18.0538 96.8838 14.6426 91.5967 12.3196C86.3166 9.91157 79.9347 8.39671 72.4512 7.77504C62.8416 6.97677 54.3486 7.68409 46.972 9.89701C39.6026 12.0249 33.3214 15.9985 28.1285 21.818C23.0276 27.5594 18.9408 35.5257 15.8679 45.717C14.4447 50.4795 13.5742 54.7742 13.2563 58.601C12.67 65.6594 13.6848 71.4807 16.301 76.065C19.0092 80.5714 23.0034 84.0285 28.2835 86.4366ZM65.7155 62.5735C63.1366 64.7569 59.5935 65.6613 55.0864 65.2869C51.4297 64.9831 48.8889 64.1299 47.4641 62.7271C46.0394 61.3243 45.4471 59.1773 45.6873 56.2859C45.7791 55.1804 45.9631 53.9969 46.2391 52.7354C46.5222 51.3889 46.901 49.9219 47.3754 48.3343C49.1455 42.4875 51.32 38.4724 53.8989 36.2891C56.57 34.0278 60.1591 33.0843 64.6662 33.4587C68.408 33.7696 70.9912 34.6264 72.416 36.0291C73.8478 37.3468 74.4401 39.4939 74.1929 42.4703C74.101 43.5759 73.871 44.7983 73.5029 46.1378C73.2268 47.3993 72.8516 48.8238 72.3772 50.4113C70.6071 56.2581 68.3865 60.3122 65.7155 62.5735Z" fill="url(#paint0_linear_4_77)"/>
<defs>
<linearGradient id="paint0_linear_4_77" x1="2.12662e-07" y1="47" x2="211.836" y2="52.9028" gradientUnits="userSpaceOnUse">
<stop stop-color="#F1362A"/>
<stop offset="1" stop-color="#AC1694"/>
</linearGradient>
</defs>
</svg>
