<svg width="166" height="166" viewBox="0 0 166 166" fill="none" xmlns="http://www.w3.org/2000/svg">
<g opacity="0.03">
<path d="M3 120.333C1.52724 120.333 0.333333 121.527 0.333333 123C0.333333 124.473 1.52724 125.667 3 125.667C4.47276 125.667 5.66667 124.473 5.66667 123C5.66667 121.527 4.47276 120.333 3 120.333ZM3 160.333C1.52724 160.333 0.333335 161.527 0.333335 163C0.333335 164.473 1.52724 165.667 3 165.667C4.47276 165.667 5.66667 164.473 5.66667 163C5.66667 161.527 4.47276 160.333 3 160.333ZM2.5 123L2.5 163L3.5 163L3.5 123L2.5 123Z" fill="white"/>
<path d="M45.6667 163C45.6667 161.527 44.4728 160.333 43 160.333C41.5272 160.333 40.3333 161.527 40.3333 163C40.3333 164.473 41.5272 165.667 43 165.667C44.4728 165.667 45.6667 164.473 45.6667 163ZM5.66667 163C5.66667 161.527 4.47276 160.333 3 160.333C1.52724 160.333 0.333333 161.527 0.333333 163C0.333333 164.473 1.52724 165.667 3 165.667C4.47276 165.667 5.66667 164.473 5.66667 163ZM43 162.5L3 162.5L3 163.5L43 163.5L43 162.5Z" fill="white"/>
<path d="M43 120.333C41.5272 120.333 40.3333 121.527 40.3333 123C40.3333 124.473 41.5272 125.667 43 125.667C44.4728 125.667 45.6667 124.473 45.6667 123C45.6667 121.527 44.4728 120.333 43 120.333ZM43 160.333C41.5272 160.333 40.3333 161.527 40.3333 163C40.3333 164.473 41.5272 165.667 43 165.667C44.4728 165.667 45.6667 164.473 45.6667 163C45.6667 161.527 44.4728 160.333 43 160.333ZM42.5 123L42.5 163L43.5 163L43.5 123L42.5 123Z" fill="white"/>
<path d="M43 120.333C41.5272 120.333 40.3333 121.527 40.3333 123C40.3333 124.473 41.5272 125.667 43 125.667C44.4728 125.667 45.6667 124.473 45.6667 123C45.6667 121.527 44.4728 120.333 43 120.333ZM43 160.333C41.5272 160.333 40.3333 161.527 40.3333 163C40.3333 164.473 41.5272 165.667 43 165.667C44.4728 165.667 45.6667 164.473 45.6667 163C45.6667 161.527 44.4728 160.333 43 160.333ZM42.5 123L42.5 163L43.5 163L43.5 123L42.5 123Z" fill="white"/>
<path d="M85.6667 123C85.6667 121.527 84.4728 120.333 83 120.333C81.5272 120.333 80.3333 121.527 80.3333 123C80.3333 124.473 81.5272 125.667 83 125.667C84.4728 125.667 85.6667 124.473 85.6667 123ZM45.6667 123C45.6667 121.527 44.4728 120.333 43 120.333C41.5272 120.333 40.3333 121.527 40.3333 123C40.3333 124.473 41.5272 125.667 43 125.667C44.4728 125.667 45.6667 124.473 45.6667 123ZM83 122.5L43 122.5L43 123.5L83 123.5L83 122.5Z" fill="white"/>
<path d="M83 120.333C81.5272 120.333 80.3333 121.527 80.3333 123C80.3333 124.473 81.5272 125.667 83 125.667C84.4728 125.667 85.6667 124.473 85.6667 123C85.6667 121.527 84.4728 120.333 83 120.333ZM83 160.333C81.5272 160.333 80.3333 161.527 80.3333 163C80.3333 164.473 81.5272 165.667 83 165.667C84.4728 165.667 85.6667 164.473 85.6667 163C85.6667 161.527 84.4728 160.333 83 160.333ZM82.5 123L82.5 163L83.5 163L83.5 123L82.5 123Z" fill="white"/>
<path d="M83 120.333C81.5272 120.333 80.3333 121.527 80.3333 123C80.3333 124.473 81.5272 125.667 83 125.667C84.4728 125.667 85.6667 124.473 85.6667 123C85.6667 121.527 84.4728 120.333 83 120.333ZM83 160.333C81.5272 160.333 80.3333 161.527 80.3333 163C80.3333 164.473 81.5272 165.667 83 165.667C84.4728 165.667 85.6667 164.473 85.6667 163C85.6667 161.527 84.4728 160.333 83 160.333ZM82.5 123L82.5 163L83.5 163L83.5 123L82.5 123Z" fill="white"/>
<path d="M125.667 123C125.667 121.527 124.473 120.333 123 120.333C121.527 120.333 120.333 121.527 120.333 123C120.333 124.473 121.527 125.667 123 125.667C124.473 125.667 125.667 124.473 125.667 123ZM85.6667 123C85.6667 121.527 84.4728 120.333 83 120.333C81.5272 120.333 80.3333 121.527 80.3333 123C80.3333 124.473 81.5272 125.667 83 125.667C84.4728 125.667 85.6667 124.473 85.6667 123ZM123 122.5L83 122.5L83 123.5L123 123.5L123 122.5Z" fill="white"/>
<path d="M123 120.333C121.527 120.333 120.333 121.527 120.333 123C120.333 124.473 121.527 125.667 123 125.667C124.473 125.667 125.667 124.473 125.667 123C125.667 121.527 124.473 120.333 123 120.333ZM123 160.333C121.527 160.333 120.333 161.527 120.333 163C120.333 164.473 121.527 165.667 123 165.667C124.473 165.667 125.667 164.473 125.667 163C125.667 161.527 124.473 160.333 123 160.333ZM122.5 123L122.5 163L123.5 163L123.5 123L122.5 123Z" fill="white"/>
<path d="M123 120.333C121.527 120.333 120.333 121.527 120.333 123C120.333 124.473 121.527 125.667 123 125.667C124.473 125.667 125.667 124.473 125.667 123C125.667 121.527 124.473 120.333 123 120.333ZM123 160.333C121.527 160.333 120.333 161.527 120.333 163C120.333 164.473 121.527 165.667 123 165.667C124.473 165.667 125.667 164.473 125.667 163C125.667 161.527 124.473 160.333 123 160.333ZM122.5 123L122.5 163L123.5 163L123.5 123L122.5 123Z" fill="white"/>
<path d="M165.667 123C165.667 121.527 164.473 120.333 163 120.333C161.527 120.333 160.333 121.527 160.333 123C160.333 124.473 161.527 125.667 163 125.667C164.473 125.667 165.667 124.473 165.667 123ZM125.667 123C125.667 121.527 124.473 120.333 123 120.333C121.527 120.333 120.333 121.527 120.333 123C120.333 124.473 121.527 125.667 123 125.667C124.473 125.667 125.667 124.473 125.667 123ZM163 122.5L123 122.5L123 123.5L163 123.5L163 122.5Z" fill="white"/>
<path d="M163 120.333C161.527 120.333 160.333 121.527 160.333 123C160.333 124.473 161.527 125.667 163 125.667C164.473 125.667 165.667 124.473 165.667 123C165.667 121.527 164.473 120.333 163 120.333ZM163 160.333C161.527 160.333 160.333 161.527 160.333 163C160.333 164.473 161.527 165.667 163 165.667C164.473 165.667 165.667 164.473 165.667 163C165.667 161.527 164.473 160.333 163 160.333ZM162.5 123L162.5 163L163.5 163L163.5 123L162.5 123Z" fill="white"/>
<path d="M3 80.3333C1.52724 80.3333 0.333333 81.5272 0.333333 83C0.333333 84.4728 1.52724 85.6667 3 85.6667C4.47276 85.6667 5.66667 84.4728 5.66667 83C5.66667 81.5272 4.47276 80.3333 3 80.3333ZM3 120.333C1.52724 120.333 0.333335 121.527 0.333335 123C0.333335 124.473 1.52724 125.667 3 125.667C4.47276 125.667 5.66667 124.473 5.66667 123C5.66667 121.527 4.47276 120.333 3 120.333ZM2.5 83L2.5 123L3.5 123L3.5 83L2.5 83Z" fill="white"/>
<path d="M43 80.3333C41.5272 80.3333 40.3333 81.5272 40.3333 83C40.3333 84.4728 41.5272 85.6667 43 85.6667C44.4728 85.6667 45.6667 84.4728 45.6667 83C45.6667 81.5272 44.4728 80.3333 43 80.3333ZM43 120.333C41.5272 120.333 40.3333 121.527 40.3333 123C40.3333 124.473 41.5272 125.667 43 125.667C44.4728 125.667 45.6667 124.473 45.6667 123C45.6667 121.527 44.4728 120.333 43 120.333ZM42.5 83L42.5 123L43.5 123L43.5 83L42.5 83Z" fill="white"/>
<path d="M43 80.3333C41.5272 80.3333 40.3333 81.5272 40.3333 83C40.3333 84.4728 41.5272 85.6667 43 85.6667C44.4728 85.6667 45.6667 84.4728 45.6667 83C45.6667 81.5272 44.4728 80.3333 43 80.3333ZM43 120.333C41.5272 120.333 40.3333 121.527 40.3333 123C40.3333 124.473 41.5272 125.667 43 125.667C44.4728 125.667 45.6667 124.473 45.6667 123C45.6667 121.527 44.4728 120.333 43 120.333ZM42.5 83L42.5 123L43.5 123L43.5 83L42.5 83Z" fill="white"/>
<path d="M85.6667 123C85.6667 121.527 84.4728 120.333 83 120.333C81.5272 120.333 80.3333 121.527 80.3333 123C80.3333 124.473 81.5272 125.667 83 125.667C84.4728 125.667 85.6667 124.473 85.6667 123ZM45.6667 123C45.6667 121.527 44.4728 120.333 43 120.333C41.5272 120.333 40.3333 121.527 40.3333 123C40.3333 124.473 41.5272 125.667 43 125.667C44.4728 125.667 45.6667 124.473 45.6667 123ZM83 122.5L43 122.5L43 123.5L83 123.5L83 122.5Z" fill="white"/>
<path d="M125.667 83C125.667 81.5272 124.473 80.3333 123 80.3333C121.527 80.3333 120.333 81.5272 120.333 83C120.333 84.4728 121.527 85.6667 123 85.6667C124.473 85.6667 125.667 84.4728 125.667 83ZM85.6667 83C85.6667 81.5272 84.4728 80.3333 83 80.3333C81.5272 80.3333 80.3333 81.5272 80.3333 83C80.3333 84.4728 81.5272 85.6667 83 85.6667C84.4728 85.6667 85.6667 84.4728 85.6667 83ZM123 82.5L83 82.5L83 83.5L123 83.5L123 82.5Z" fill="white"/>
<path d="M125.667 123C125.667 121.527 124.473 120.333 123 120.333C121.527 120.333 120.333 121.527 120.333 123C120.333 124.473 121.527 125.667 123 125.667C124.473 125.667 125.667 124.473 125.667 123ZM85.6667 123C85.6667 121.527 84.4728 120.333 83 120.333C81.5272 120.333 80.3333 121.527 80.3333 123C80.3333 124.473 81.5272 125.667 83 125.667C84.4728 125.667 85.6667 124.473 85.6667 123ZM123 122.5L83 122.5L83 123.5L123 123.5L123 122.5Z" fill="white"/>
<path d="M165.667 83C165.667 81.5272 164.473 80.3333 163 80.3333C161.527 80.3333 160.333 81.5272 160.333 83C160.333 84.4728 161.527 85.6667 163 85.6667C164.473 85.6667 165.667 84.4728 165.667 83ZM125.667 83C125.667 81.5272 124.473 80.3333 123 80.3333C121.527 80.3333 120.333 81.5272 120.333 83C120.333 84.4728 121.527 85.6667 123 85.6667C124.473 85.6667 125.667 84.4728 125.667 83ZM163 82.5L123 82.5L123 83.5L163 83.5L163 82.5Z" fill="white"/>
<path d="M165.667 123C165.667 121.527 164.473 120.333 163 120.333C161.527 120.333 160.333 121.527 160.333 123C160.333 124.473 161.527 125.667 163 125.667C164.473 125.667 165.667 124.473 165.667 123ZM125.667 123C125.667 121.527 124.473 120.333 123 120.333C121.527 120.333 120.333 121.527 120.333 123C120.333 124.473 121.527 125.667 123 125.667C124.473 125.667 125.667 124.473 125.667 123ZM163 122.5L123 122.5L123 123.5L163 123.5L163 122.5Z" fill="white"/>
<path d="M163 80.3333C161.527 80.3333 160.333 81.5272 160.333 83C160.333 84.4728 161.527 85.6667 163 85.6667C164.473 85.6667 165.667 84.4728 165.667 83C165.667 81.5272 164.473 80.3333 163 80.3333ZM163 120.333C161.527 120.333 160.333 121.527 160.333 123C160.333 124.473 161.527 125.667 163 125.667C164.473 125.667 165.667 124.473 165.667 123C165.667 121.527 164.473 120.333 163 120.333ZM162.5 83L162.5 123L163.5 123L163.5 83L162.5 83Z" fill="white"/>
<path d="M3 40.3333C1.52724 40.3333 0.333333 41.5272 0.333333 43C0.333333 44.4728 1.52724 45.6667 3 45.6667C4.47276 45.6667 5.66667 44.4728 5.66667 43C5.66667 41.5272 4.47276 40.3333 3 40.3333ZM3 80.3333C1.52724 80.3333 0.333335 81.5272 0.333335 83C0.333335 84.4728 1.52724 85.6667 3 85.6667C4.47276 85.6667 5.66667 84.4728 5.66667 83C5.66667 81.5272 4.47276 80.3333 3 80.3333ZM2.5 43L2.5 83L3.5 83L3.5 43L2.5 43Z" fill="white"/>
<path d="M45.6667 43C45.6667 41.5272 44.4728 40.3333 43 40.3333C41.5272 40.3333 40.3333 41.5272 40.3333 43C40.3333 44.4728 41.5272 45.6667 43 45.6667C44.4728 45.6667 45.6667 44.4728 45.6667 43ZM5.66667 43C5.66667 41.5272 4.47276 40.3333 3 40.3333C1.52724 40.3333 0.333333 41.5272 0.333333 43C0.333333 44.4728 1.52724 45.6667 3 45.6667C4.47276 45.6667 5.66667 44.4728 5.66667 43ZM43 42.5L3 42.5L3 43.5L43 43.5L43 42.5Z" fill="white"/>
<path d="M83 40.3333C81.5272 40.3333 80.3333 41.5272 80.3333 43C80.3333 44.4728 81.5272 45.6667 83 45.6667C84.4728 45.6667 85.6667 44.4728 85.6667 43C85.6667 41.5272 84.4728 40.3333 83 40.3333ZM83 80.3333C81.5272 80.3333 80.3333 81.5272 80.3333 83C80.3333 84.4728 81.5272 85.6667 83 85.6667C84.4728 85.6667 85.6667 84.4728 85.6667 83C85.6667 81.5272 84.4728 80.3333 83 80.3333ZM82.5 43L82.5 83L83.5 83L83.5 43L82.5 43Z" fill="white"/>
<path d="M83 40.3333C81.5272 40.3333 80.3333 41.5272 80.3333 43C80.3333 44.4728 81.5272 45.6667 83 45.6667C84.4728 45.6667 85.6667 44.4728 85.6667 43C85.6667 41.5272 84.4728 40.3333 83 40.3333ZM83 80.3333C81.5272 80.3333 80.3333 81.5272 80.3333 83C80.3333 84.4728 81.5272 85.6667 83 85.6667C84.4728 85.6667 85.6667 84.4728 85.6667 83C85.6667 81.5272 84.4728 80.3333 83 80.3333ZM82.5 43L82.5 83L83.5 83L83.5 43L82.5 43Z" fill="white"/>
<path d="M125.667 83C125.667 81.5272 124.473 80.3333 123 80.3333C121.527 80.3333 120.333 81.5272 120.333 83C120.333 84.4728 121.527 85.6667 123 85.6667C124.473 85.6667 125.667 84.4728 125.667 83ZM85.6667 83C85.6667 81.5272 84.4728 80.3333 83 80.3333C81.5272 80.3333 80.3333 81.5272 80.3333 83C80.3333 84.4728 81.5272 85.6667 83 85.6667C84.4728 85.6667 85.6667 84.4728 85.6667 83ZM123 82.5L83 82.5L83 83.5L123 83.5L123 82.5Z" fill="white"/>
<path d="M123 40.3333C121.527 40.3333 120.333 41.5272 120.333 43C120.333 44.4728 121.527 45.6667 123 45.6667C124.473 45.6667 125.667 44.4728 125.667 43C125.667 41.5272 124.473 40.3333 123 40.3333ZM123 80.3333C121.527 80.3333 120.333 81.5272 120.333 83C120.333 84.4728 121.527 85.6667 123 85.6667C124.473 85.6667 125.667 84.4728 125.667 83C125.667 81.5272 124.473 80.3333 123 80.3333ZM122.5 43L122.5 83L123.5 83L123.5 43L122.5 43Z" fill="white"/>
<path d="M123 40.3333C121.527 40.3333 120.333 41.5272 120.333 43C120.333 44.4728 121.527 45.6667 123 45.6667C124.473 45.6667 125.667 44.4728 125.667 43C125.667 41.5272 124.473 40.3333 123 40.3333ZM123 80.3333C121.527 80.3333 120.333 81.5272 120.333 83C120.333 84.4728 121.527 85.6667 123 85.6667C124.473 85.6667 125.667 84.4728 125.667 83C125.667 81.5272 124.473 80.3333 123 80.3333ZM122.5 43L122.5 83L123.5 83L123.5 43L122.5 43Z" fill="white"/>
<path d="M165.667 43C165.667 41.5272 164.473 40.3333 163 40.3333C161.527 40.3333 160.333 41.5272 160.333 43C160.333 44.4728 161.527 45.6667 163 45.6667C164.473 45.6667 165.667 44.4728 165.667 43ZM125.667 43C125.667 41.5272 124.473 40.3333 123 40.3333C121.527 40.3333 120.333 41.5272 120.333 43C120.333 44.4728 121.527 45.6667 123 45.6667C124.473 45.6667 125.667 44.4728 125.667 43ZM163 42.5L123 42.5L123 43.5L163 43.5L163 42.5Z" fill="white"/>
<path d="M165.667 83C165.667 81.5272 164.473 80.3333 163 80.3333C161.527 80.3333 160.333 81.5272 160.333 83C160.333 84.4728 161.527 85.6667 163 85.6667C164.473 85.6667 165.667 84.4728 165.667 83ZM125.667 83C125.667 81.5272 124.473 80.3333 123 80.3333C121.527 80.3333 120.333 81.5272 120.333 83C120.333 84.4728 121.527 85.6667 123 85.6667C124.473 85.6667 125.667 84.4728 125.667 83ZM163 82.5L123 82.5L123 83.5L163 83.5L163 82.5Z" fill="white"/>
<path d="M3 0.333333C1.52724 0.333333 0.333333 1.52724 0.333333 3C0.333333 4.47276 1.52724 5.66667 3 5.66667C4.47276 5.66667 5.66667 4.47276 5.66667 3C5.66667 1.52724 4.47276 0.333333 3 0.333333ZM3 40.3333C1.52724 40.3333 0.333335 41.5272 0.333335 43C0.333335 44.4728 1.52724 45.6667 3 45.6667C4.47276 45.6667 5.66667 44.4728 5.66667 43C5.66667 41.5272 4.47276 40.3333 3 40.3333ZM2.5 3L2.5 43L3.5 43L3.5 3L2.5 3Z" fill="white"/>
<path d="M45.6667 43C45.6667 41.5272 44.4728 40.3333 43 40.3333C41.5272 40.3333 40.3333 41.5272 40.3333 43C40.3333 44.4728 41.5272 45.6667 43 45.6667C44.4728 45.6667 45.6667 44.4728 45.6667 43ZM5.66667 43C5.66667 41.5272 4.47276 40.3333 3 40.3333C1.52724 40.3333 0.333333 41.5272 0.333333 43C0.333333 44.4728 1.52724 45.6667 3 45.6667C4.47276 45.6667 5.66667 44.4728 5.66667 43ZM43 42.5L3 42.5L3 43.5L43 43.5L43 42.5Z" fill="white"/>
<path d="M43 0.333333C41.5272 0.333333 40.3333 1.52724 40.3333 3C40.3333 4.47276 41.5272 5.66667 43 5.66667C44.4728 5.66667 45.6667 4.47276 45.6667 3C45.6667 1.52724 44.4728 0.333333 43 0.333333ZM43 40.3333C41.5272 40.3333 40.3333 41.5272 40.3333 43C40.3333 44.4728 41.5272 45.6667 43 45.6667C44.4728 45.6667 45.6667 44.4728 45.6667 43C45.6667 41.5272 44.4728 40.3333 43 40.3333ZM42.5 3L42.5 43L43.5 43L43.5 3L42.5 3Z" fill="white"/>
<path d="M43 0.333333C41.5272 0.333333 40.3333 1.52724 40.3333 3C40.3333 4.47276 41.5272 5.66667 43 5.66667C44.4728 5.66667 45.6667 4.47276 45.6667 3C45.6667 1.52724 44.4728 0.333333 43 0.333333ZM43 40.3333C41.5272 40.3333 40.3333 41.5272 40.3333 43C40.3333 44.4728 41.5272 45.6667 43 45.6667C44.4728 45.6667 45.6667 44.4728 45.6667 43C45.6667 41.5272 44.4728 40.3333 43 40.3333ZM42.5 3L42.5 43L43.5 43L43.5 3L42.5 3Z" fill="white"/>
<path d="M83 0.333333C81.5272 0.333333 80.3333 1.52724 80.3333 3C80.3333 4.47276 81.5272 5.66667 83 5.66667C84.4728 5.66667 85.6667 4.47276 85.6667 3C85.6667 1.52724 84.4728 0.333333 83 0.333333ZM83 40.3333C81.5272 40.3333 80.3333 41.5272 80.3333 43C80.3333 44.4728 81.5272 45.6667 83 45.6667C84.4728 45.6667 85.6667 44.4728 85.6667 43C85.6667 41.5272 84.4728 40.3333 83 40.3333ZM82.5 3L82.5 43L83.5 43L83.5 3L82.5 3Z" fill="white"/>
<path d="M83 0.333333C81.5272 0.333333 80.3333 1.52724 80.3333 3C80.3333 4.47276 81.5272 5.66667 83 5.66667C84.4728 5.66667 85.6667 4.47276 85.6667 3C85.6667 1.52724 84.4728 0.333333 83 0.333333ZM83 40.3333C81.5272 40.3333 80.3333 41.5272 80.3333 43C80.3333 44.4728 81.5272 45.6667 83 45.6667C84.4728 45.6667 85.6667 44.4728 85.6667 43C85.6667 41.5272 84.4728 40.3333 83 40.3333ZM82.5 3L82.5 43L83.5 43L83.5 3L82.5 3Z" fill="white"/>
<path d="M165.667 3C165.667 1.52724 164.473 0.333333 163 0.333333C161.527 0.333333 160.333 1.52724 160.333 3C160.333 4.47276 161.527 5.66667 163 5.66667C164.473 5.66667 165.667 4.47276 165.667 3ZM125.667 3C125.667 1.52724 124.473 0.33333 123 0.33333C121.527 0.33333 120.333 1.52724 120.333 3C120.333 4.47276 121.527 5.66666 123 5.66666C124.473 5.66666 125.667 4.47276 125.667 3ZM163 2.5L123 2.5L123 3.5L163 3.5L163 2.5Z" fill="white"/>
<path d="M165.667 43C165.667 41.5272 164.473 40.3333 163 40.3333C161.527 40.3333 160.333 41.5272 160.333 43C160.333 44.4728 161.527 45.6667 163 45.6667C164.473 45.6667 165.667 44.4728 165.667 43ZM125.667 43C125.667 41.5272 124.473 40.3333 123 40.3333C121.527 40.3333 120.333 41.5272 120.333 43C120.333 44.4728 121.527 45.6667 123 45.6667C124.473 45.6667 125.667 44.4728 125.667 43ZM163 42.5L123 42.5L123 43.5L163 43.5L163 42.5Z" fill="white"/>
<path d="M163 0.333333C161.527 0.333333 160.333 1.52724 160.333 3C160.333 4.47276 161.527 5.66667 163 5.66667C164.473 5.66667 165.667 4.47276 165.667 3C165.667 1.52724 164.473 0.333333 163 0.333333ZM163 40.3333C161.527 40.3333 160.333 41.5272 160.333 43C160.333 44.4728 161.527 45.6667 163 45.6667C164.473 45.6667 165.667 44.4728 165.667 43C165.667 41.5272 164.473 40.3333 163 40.3333ZM162.5 3L162.5 43L163.5 43L163.5 3L162.5 3Z" fill="white"/>
</g>
</svg>
