<svg width="36" height="34" viewBox="0 0 36 34" fill="none" xmlns="http://www.w3.org/2000/svg">
<mask id="path-1-inside-1_1_5" fill="white">
<path d="M27.7747 13.2858C28.043 13.183 28.3449 13.3169 28.436 13.5894C29.2576 16.049 29.2617 18.7139 28.4393 21.1831C27.5621 23.8171 25.7986 26.0655 23.4495 27.5451C21.1004 29.0247 18.3109 29.644 15.5563 29.2974C12.8018 28.9509 10.2526 27.66 8.34313 25.6446C6.43367 23.6293 5.28207 21.0142 5.08456 18.245C4.88704 15.4758 5.65583 12.7237 7.25993 10.4578C8.86402 8.19184 11.2042 6.5522 13.8817 5.81823C16.3916 5.13019 19.0524 5.27793 21.4641 6.23096C21.7313 6.33656 21.8487 6.6453 21.7317 6.90768V6.90768C21.6146 7.17007 21.3074 7.28663 21.0397 7.18214C18.8482 6.32655 16.4345 6.1973 14.1567 6.82169C11.7114 7.49202 9.57416 8.9895 8.10915 11.059C6.64414 13.1284 5.94201 15.6419 6.1224 18.171C6.30279 20.7001 7.35454 23.0884 9.09844 24.929C10.8423 26.7696 13.1705 27.9486 15.6862 28.2651C18.2019 28.5816 20.7495 28.016 22.895 26.6647C25.0404 25.3134 26.651 23.2599 27.4521 20.8543C28.1984 18.6136 28.1995 16.1963 27.4633 13.9619C27.3734 13.689 27.5064 13.3885 27.7747 13.2858V13.2858Z"/>
</mask>
<path d="M27.7747 13.2858C28.043 13.183 28.3449 13.3169 28.436 13.5894C29.2576 16.049 29.2617 18.7139 28.4393 21.1831C27.5621 23.8171 25.7986 26.0655 23.4495 27.5451C21.1004 29.0247 18.3109 29.644 15.5563 29.2974C12.8018 28.9509 10.2526 27.66 8.34313 25.6446C6.43367 23.6293 5.28207 21.0142 5.08456 18.245C4.88704 15.4758 5.65583 12.7237 7.25993 10.4578C8.86402 8.19184 11.2042 6.5522 13.8817 5.81823C16.3916 5.13019 19.0524 5.27793 21.4641 6.23096C21.7313 6.33656 21.8487 6.6453 21.7317 6.90768V6.90768C21.6146 7.17007 21.3074 7.28663 21.0397 7.18214C18.8482 6.32655 16.4345 6.1973 14.1567 6.82169C11.7114 7.49202 9.57416 8.9895 8.10915 11.059C6.64414 13.1284 5.94201 15.6419 6.1224 18.171C6.30279 20.7001 7.35454 23.0884 9.09844 24.929C10.8423 26.7696 13.1705 27.9486 15.6862 28.2651C18.2019 28.5816 20.7495 28.016 22.895 26.6647C25.0404 25.3134 26.651 23.2599 27.4521 20.8543C28.1984 18.6136 28.1995 16.1963 27.4633 13.9619C27.3734 13.689 27.5064 13.3885 27.7747 13.2858V13.2858Z" stroke="#ffffff" stroke-width="2" mask="url(#path-1-inside-1_1_5)"/>
<path d="M21.6689 12.1818C21.462 12.3647 21.4425 12.6806 21.6254 12.8875C21.8083 13.0944 22.1243 13.1139 22.3311 12.931L21.6689 12.1818ZM29.9162 6.03074C29.9332 5.75512 29.7235 5.51792 29.4479 5.50094L24.9564 5.22428C24.6808 5.20731 24.4436 5.41698 24.4266 5.6926C24.4096 5.96822 24.6193 6.20541 24.8949 6.22239L28.8873 6.46831L28.6414 10.4607C28.6244 10.7364 28.8341 10.9736 29.1097 10.9905C29.3853 11.0075 29.6225 10.7978 29.6395 10.5222L29.9162 6.03074ZM22.3311 12.931L29.7483 6.37462L29.086 5.62538L21.6689 12.1818L22.3311 12.931Z" fill="#474747"/>
</svg>
